<svg xmlns="http://www.w3.org/2000/svg" xmlns:xlink="http://www.w3.org/1999/xlink" width="2000" zoomAndPan="magnify" viewBox="0 0 1500 1499.999933" height="2000" preserveAspectRatio="xMidYMid meet" version="1.0"><defs><clipPath id="9ca9e1ff43"><path d="M 526 460 L 1007.25 460 L 1007.25 1040 L 526 1040 Z M 526 460 " clip-rule="nonzero"/></clipPath></defs><g clip-path="url(#9ca9e1ff43)"><path fill="#ffffff" d="M 690.292969 468.273438 L 690.410156 467.695312 C 699.507812 470.890625 708.027344 475.136719 715.902344 480.191406 C 722.269531 484.292969 726.046875 491.355469 725.933594 498.914062 L 723.054688 663.4375 C 722.9375 670.730469 719.160156 677.503906 712.996094 681.429688 C 703.925781 687.214844 688.375 691.71875 675.355469 694.769531 C 682.910156 726.890625 696.660156 758.109375 716.746094 786.769531 C 736.804688 815.460938 761.421875 839.0625 789.066406 857.144531 C 796.363281 845.921875 805.925781 832.871094 814.441406 826.332031 C 820.257812 821.882812 827.902344 820.664062 834.789062 823.019531 L 990.390625 876.589844 C 997.394531 879.003906 1002.6875 884.816406 1004.460938 891.996094 C 1006.785156 901.441406 1007.949219 911.238281 1007.570312 921.238281 L 1006.289062 938.503906 C 1006.234375 939.261719 1006.144531 939.988281 1006.027344 940.683594 C 994.546875 1005.679688 932.488281 1049.164062 867.492188 1037.714844 C 643.03125 998.121094 492.925781 783.746094 532.515625 559.316406 C 543.96875 494.320312 606.054688 450.835938 671.050781 462.285156 C 671.777344 462.433594 672.476562 462.578125 673.171875 462.78125 L 689.160156 467.316406 C 689.625 467.460938 690.003906 467.78125 690.292969 468.273438 Z M 690.292969 468.273438 " fill-opacity="1" fill-rule="evenodd"/></g></svg>