<svg xmlns="http://www.w3.org/2000/svg" xmlns:xlink="http://www.w3.org/1999/xlink" width="2000" zoomAndPan="magnify" viewBox="0 0 1500 1499.999933" height="2000" preserveAspectRatio="xMidYMid meet" version="1.0"><defs><clipPath id="2b73dae420"><path d="M 177 26 L 1408.554688 26 L 1408.554688 1500 L 177 1500 Z M 177 26 " clip-rule="nonzero"/></clipPath></defs><g clip-path="url(#2b73dae420)"><path fill="#ffffff" d="M 597.179688 46.777344 L 597.476562 45.289062 C 620.761719 53.476562 642.5625 64.335938 662.726562 77.28125 C 679.019531 87.773438 688.691406 105.851562 688.394531 125.195312 L 681.027344 546.300781 C 680.730469 564.976562 671.058594 582.3125 655.285156 592.355469 C 632.070312 607.160156 592.269531 618.691406 558.9375 626.503906 C 578.28125 708.71875 613.472656 788.621094 664.882812 861.980469 C 716.21875 935.414062 779.234375 995.828125 849.988281 1042.105469 C 868.664062 1013.386719 893.140625 979.980469 914.941406 963.238281 C 929.820312 951.855469 949.390625 948.730469 967.023438 954.757812 L 1365.285156 1091.878906 C 1383.214844 1098.054688 1396.757812 1112.933594 1401.296875 1131.308594 C 1407.246094 1155.488281 1410.222656 1180.5625 1409.257812 1206.15625 L 1405.980469 1250.351562 C 1405.832031 1252.285156 1405.609375 1254.144531 1405.3125 1255.929688 C 1375.925781 1422.289062 1217.082031 1533.59375 1050.722656 1504.277344 C 476.203125 1402.945312 92 854.242188 193.335938 279.800781 C 222.648438 113.441406 381.566406 2.140625 547.925781 31.453125 C 549.785156 31.824219 551.570312 32.195312 553.355469 32.71875 L 594.277344 44.324219 C 595.46875 44.695312 596.433594 45.515625 597.179688 46.777344 Z M 597.179688 46.777344 " fill-opacity="1" fill-rule="evenodd"/></g></svg>