<svg xmlns="http://www.w3.org/2000/svg" xmlns:xlink="http://www.w3.org/1999/xlink" width="2000" zoomAndPan="magnify" viewBox="0 0 1500 1499.999933" height="2000" preserveAspectRatio="xMidYMid meet" version="1.0"><defs><clipPath id="e317dd50f6"><path d="M 451 651 L 1048 651 L 1048 962.316406 L 451 962.316406 Z M 451 651 " clip-rule="nonzero"/></clipPath></defs><g clip-path="url(#e317dd50f6)"><path fill="#ed1c24" d="M 451.675781 651.269531 C 478.753906 667.871094 504.628906 683.714844 530.503906 699.59375 C 597.988281 740.976562 665.488281 782.324219 732.941406 823.757812 C 744.59375 830.921875 755.871094 829.941406 767.148438 823.035156 C 818.257812 791.707031 869.371094 760.382812 920.5 729.09375 C 960.800781 704.414062 1001.136719 679.789062 1041.457031 655.144531 C 1042.886719 654.265625 1044.398438 653.507812 1046.863281 652.148438 C 1047.070312 655.628906 1047.34375 658.125 1047.34375 660.605469 C 1047.363281 746.640625 1047.378906 832.675781 1047.34375 918.714844 C 1047.34375 946.851562 1032.296875 962.300781 1004.324219 962.316406 C 833.789062 962.402344 663.234375 962.386719 492.699219 962.316406 C 467.890625 962.316406 451.332031 946.421875 451.296875 922.417969 C 451.175781 833.726562 451.242188 745.023438 451.277344 656.316406 C 451.277344 655.144531 451.449219 653.992188 451.691406 651.269531 Z M 451.675781 651.269531 " fill-opacity="1" fill-rule="nonzero"/></g><path fill="#ed1c24" d="M 750.121094 538.078125 C 835.199219 538.078125 920.292969 538.042969 1005.375 538.09375 C 1026.308594 538.09375 1040.785156 548.511719 1046.035156 566.9375 C 1049.480469 579.011719 1048.359375 581.785156 1037.617188 588.34375 C 948.183594 642.988281 858.492188 697.199219 769.609375 752.738281 C 754.5625 762.140625 744.765625 762.535156 729.480469 752.945312 C 639.734375 696.578125 549.148438 641.539062 458.628906 586.398438 C 452.121094 582.4375 450.574219 578.183594 451.503906 571.347656 C 454.117188 551.972656 470.492188 538.214844 492.214844 538.09375 C 525.890625 537.902344 559.582031 538.058594 593.253906 538.058594 C 645.535156 538.058594 697.835938 538.058594 750.121094 538.058594 L 750.121094 538.09375 Z M 750.121094 538.078125 " fill-opacity="1" fill-rule="nonzero"/></svg>