<svg xmlns="http://www.w3.org/2000/svg" xmlns:xlink="http://www.w3.org/1999/xlink" width="2000" zoomAndPan="magnify" viewBox="0 0 1500 1499.999933" height="2000" preserveAspectRatio="xMidYMid meet" version="1.0"><defs><clipPath id="99c8d153e1"><path d="M 26.296875 311.277344 L 1477 311.277344 L 1477 1252.296875 L 26.296875 1252.296875 Z M 26.296875 311.277344 " clip-rule="nonzero"/></clipPath><clipPath id="e57717c221"><path d="M 96.796875 311.277344 L 1406.203125 311.277344 C 1445.136719 311.277344 1476.703125 342.84375 1476.703125 381.777344 L 1476.703125 1181.796875 C 1476.703125 1220.730469 1445.136719 1252.296875 1406.203125 1252.296875 L 96.796875 1252.296875 C 57.863281 1252.296875 26.296875 1220.730469 26.296875 1181.796875 L 26.296875 381.777344 C 26.296875 342.84375 57.863281 311.277344 96.796875 311.277344 Z M 96.796875 311.277344 " clip-rule="nonzero"/></clipPath><clipPath id="32ac0e7873"><path d="M 0.296875 0.277344 L 1450.71875 0.277344 L 1450.71875 941.296875 L 0.296875 941.296875 Z M 0.296875 0.277344 " clip-rule="nonzero"/></clipPath><clipPath id="22b24bd7d1"><path d="M 70.796875 0.277344 L 1380.203125 0.277344 C 1419.136719 0.277344 1450.703125 31.84375 1450.703125 70.777344 L 1450.703125 870.796875 C 1450.703125 909.730469 1419.136719 941.296875 1380.203125 941.296875 L 70.796875 941.296875 C 31.863281 941.296875 0.296875 909.730469 0.296875 870.796875 L 0.296875 70.777344 C 0.296875 31.84375 31.863281 0.277344 70.796875 0.277344 Z M 70.796875 0.277344 " clip-rule="nonzero"/></clipPath><clipPath id="f31e5a0a32"><rect x="0" width="1451" y="0" height="942"/></clipPath><clipPath id="0fa3e4229d"><path d="M 26 543 L 1468 543 L 1468 1294.871094 L 26 1294.871094 Z M 26 543 " clip-rule="nonzero"/></clipPath></defs><g clip-path="url(#99c8d153e1)"><g clip-path="url(#e57717c221)"><g transform="matrix(1, 0, 0, 1, 26, 311)"><g clip-path="url(#f31e5a0a32)"><g clip-path="url(#32ac0e7873)"><g clip-path="url(#22b24bd7d1)"><path fill="#ffffff" d="M 0.296875 0.277344 L 1452.257812 0.277344 L 1452.257812 941.296875 L 0.296875 941.296875 Z M 0.296875 0.277344 " fill-opacity="1" fill-rule="nonzero"/></g></g></g></g></g></g><g clip-path="url(#0fa3e4229d)"><path fill="#ed1c24" d="M 27.339844 543.082031 C 92.804688 583.207031 155.359375 621.5 217.910156 659.875 C 381.054688 759.894531 544.242188 859.832031 707.304688 959.972656 C 735.480469 977.289062 762.738281 974.917969 790 958.226562 C 913.566406 882.515625 1037.132812 806.804688 1160.738281 731.175781 C 1258.167969 671.527344 1355.679688 612.007812 1453.152344 552.445312 C 1456.605469 550.324219 1460.269531 548.492188 1466.21875 545.203125 C 1466.71875 553.613281 1467.382812 559.648438 1467.382812 565.640625 C 1467.425781 773.585938 1467.46875 981.535156 1467.382812 1189.480469 C 1467.382812 1257.492188 1431.011719 1294.828125 1363.378906 1294.871094 C 951.105469 1295.078125 538.789062 1295.039062 126.515625 1294.871094 C 66.542969 1294.871094 26.507812 1256.453125 26.421875 1198.429688 C 26.132812 984.074219 26.296875 769.675781 26.382812 555.277344 C 26.382812 552.445312 26.796875 549.65625 27.378906 543.082031 Z M 27.339844 543.082031 " fill-opacity="1" fill-rule="nonzero"/></g><path fill="#ed1c24" d="M 748.839844 269.496094 C 954.519531 269.496094 1160.238281 269.410156 1365.917969 269.535156 C 1416.527344 269.535156 1451.527344 294.71875 1464.222656 339.253906 C 1472.546875 368.433594 1469.839844 375.132812 1443.871094 390.992188 C 1227.660156 523.0625 1010.828125 654.089844 795.953125 788.324219 C 759.578125 811.046875 735.894531 812.003906 698.9375 788.820312 C 481.980469 652.589844 262.984375 519.5625 44.152344 386.289062 C 28.421875 376.714844 24.675781 366.433594 26.921875 349.910156 C 33.25 303.085938 72.828125 269.828125 125.351562 269.535156 C 206.757812 269.078125 288.203125 269.453125 369.609375 269.453125 C 496.007812 269.453125 622.445312 269.453125 748.839844 269.453125 L 748.839844 269.535156 Z M 748.839844 269.496094 " fill-opacity="1" fill-rule="nonzero"/></svg>