<svg xmlns="http://www.w3.org/2000/svg" xmlns:xlink="http://www.w3.org/1999/xlink" width="2000" zoomAndPan="magnify" viewBox="0 0 1500 1499.999933" height="2000" preserveAspectRatio="xMidYMid meet" version="1.0"><defs><clipPath id="01c90a6efc"><path d="M 451.636719 450 L 1048.636719 450 L 1048.636719 1050 L 451.636719 1050 Z M 451.636719 450 " clip-rule="nonzero"/></clipPath></defs><g clip-path="url(#01c90a6efc)"><path fill="#65cf72" d="M 961.59375 537.429688 C 905.480469 481.285156 830.863281 450.304688 751.351562 450.304688 C 587.527344 450.304688 454.1875 583.554688 454.128906 747.363281 C 454.128906 799.710938 467.800781 850.847656 493.808594 895.875 L 451.636719 1049.8125 L 609.207031 1008.488281 C 652.625 1032.175781 701.5 1044.625 751.234375 1044.652344 L 751.351562 1044.652344 C 915.148438 1044.652344 1048.519531 911.378906 1048.546875 747.597656 C 1048.546875 668.214844 1017.703125 593.601562 961.5625 537.429688 Z M 751.351562 994.496094 L 751.261719 994.496094 C 706.957031 994.496094 663.449219 982.582031 625.515625 960.082031 L 616.5 954.714844 L 522.992188 979.230469 L 547.933594 888.109375 L 542.0625 878.769531 C 517.328125 839.464844 504.277344 794.019531 504.308594 747.363281 C 504.367188 611.238281 615.195312 500.464844 751.441406 500.464844 C 817.429688 500.464844 879.441406 526.191406 926.09375 572.882812 C 972.742188 619.539062 998.398438 681.582031 998.367188 747.570312 C 998.308594 883.71875 887.480469 994.496094 751.324219 994.496094 Z M 886.855469 809.582031 C 879.441406 805.878906 842.933594 787.914062 836.113281 785.453125 C 829.292969 782.964844 824.367188 781.746094 819.414062 789.160156 C 814.460938 796.597656 800.226562 813.316406 795.898438 818.269531 C 791.566406 823.21875 787.238281 823.839844 779.792969 820.105469 C 772.378906 816.402344 748.445312 808.546875 720.0625 783.257812 C 698 763.578125 683.082031 739.269531 678.75 731.828125 C 674.421875 724.386719 678.304688 720.386719 682.015625 716.679688 C 685.335938 713.359375 689.429688 707.996094 693.164062 703.667969 C 696.871094 699.339844 698.117188 696.226562 700.578125 691.277344 C 703.070312 686.328125 701.824219 682 699.957031 678.261719 C 698.089844 674.558594 683.257812 638.007812 677.0625 623.15625 C 671.039062 608.691406 664.902344 610.648438 660.363281 610.410156 C 656.035156 610.203125 651.082031 610.144531 646.128906 610.144531 C 641.175781 610.144531 633.136719 611.980469 626.316406 619.421875 C 619.496094 626.863281 600.335938 644.824219 600.335938 681.347656 C 600.335938 717.867188 626.941406 753.171875 630.675781 758.152344 C 634.382812 763.101562 683.050781 838.070312 757.550781 870.234375 C 775.257812 877.882812 789.105469 882.445312 799.902344 885.882812 C 817.695312 891.546875 833.886719 890.746094 846.671875 888.820312 C 860.9375 886.683594 890.59375 870.855469 896.792969 853.515625 C 902.988281 836.171875 902.988281 821.320312 901.121094 818.210938 C 899.253906 815.097656 894.300781 813.257812 886.886719 809.523438 Z M 886.855469 809.582031 " fill-opacity="1" fill-rule="evenodd"/></g></svg>