<svg xmlns="http://www.w3.org/2000/svg" xmlns:xlink="http://www.w3.org/1999/xlink" width="2000" zoomAndPan="magnify" viewBox="0 0 1500 1499.999933" height="2000" preserveAspectRatio="xMidYMid meet" version="1.0"><defs><clipPath id="9d84aeb54b"><path d="M 126.144531 97 L 1470 97 L 1470 1448 L 126.144531 1448 Z M 126.144531 97 " clip-rule="nonzero"/></clipPath></defs><g clip-path="url(#9d84aeb54b)"><path fill="#65cf72" d="M 1274.183594 293.703125 C 1147.863281 167.234375 979.878906 97.457031 800.878906 97.457031 C 432.066406 97.457031 131.882812 397.601562 131.75 766.585938 C 131.75 884.503906 162.53125 999.6875 221.085938 1101.113281 L 126.144531 1447.863281 L 480.871094 1354.785156 C 578.617188 1408.136719 688.644531 1436.179688 800.613281 1436.246094 L 800.878906 1436.246094 C 1169.628906 1436.246094 1469.875 1136.035156 1469.941406 767.117188 C 1469.941406 588.300781 1400.503906 420.234375 1274.117188 293.703125 Z M 800.878906 1323.265625 L 800.679688 1323.265625 C 700.929688 1323.265625 602.984375 1296.425781 517.59375 1245.746094 L 497.296875 1233.660156 L 286.78125 1288.878906 L 342.933594 1083.621094 L 329.710938 1062.585938 C 274.03125 974.046875 244.652344 871.683594 244.71875 766.585938 C 244.851562 459.964844 494.355469 210.4375 801.082031 210.4375 C 949.632812 210.4375 1089.242188 268.394531 1194.265625 373.5625 C 1299.289062 478.660156 1357.039062 618.417969 1356.972656 767.050781 C 1356.839844 1073.738281 1107.335938 1323.265625 800.8125 1323.265625 Z M 1105.933594 906.742188 C 1089.242188 898.394531 1007.054688 857.929688 991.699219 852.386719 C 976.339844 846.777344 965.257812 844.039062 954.109375 860.734375 C 942.957031 877.492188 910.910156 915.152344 901.164062 926.304688 C 891.414062 937.457031 881.667969 938.859375 864.910156 930.445312 C 848.21875 922.097656 794.335938 904.402344 730.441406 847.445312 C 680.769531 803.109375 647.183594 748.355469 637.4375 731.597656 C 627.6875 714.835938 636.433594 705.820312 644.78125 697.476562 C 652.257812 689.996094 661.472656 677.910156 669.886719 668.164062 C 678.230469 658.414062 681.035156 651.402344 686.578125 640.25 C 692.183594 629.101562 689.378906 619.351562 685.175781 610.9375 C 680.96875 602.589844 647.585938 520.261719 633.632812 486.808594 C 620.078125 454.222656 606.257812 458.628906 596.042969 458.097656 C 586.292969 457.628906 575.144531 457.496094 563.996094 457.496094 C 552.84375 457.496094 534.75 461.636719 519.394531 478.394531 C 504.039062 495.15625 460.90625 535.617188 460.90625 617.882812 C 460.90625 700.144531 520.796875 779.671875 529.210938 790.890625 C 537.554688 802.042969 647.117188 970.910156 814.835938 1043.355469 C 854.695312 1060.585938 885.875 1070.867188 910.175781 1078.613281 C 950.234375 1091.367188 986.691406 1089.5625 1015.464844 1085.222656 C 1047.582031 1080.414062 1114.347656 1044.757812 1128.300781 1005.695312 C 1142.253906 966.636719 1142.253906 933.183594 1138.046875 926.171875 C 1133.84375 919.160156 1122.691406 915.019531 1106 906.605469 Z M 1105.933594 906.742188 " fill-opacity="1" fill-rule="evenodd"/></g></svg>